<svg width="200" height="200" viewBox="0 0 24 24" fill="none"
xmlns="http://www.w3.org/2000/svg">
<path d="M7 18c-1.1 0-1.99.9-1.99 2S5.9 22 7 22s2-.9 2-2-.9-2-2-2zm10 
0c-1.1 0-1.99.9-1.99 2s.9 2 1.99 2 
2-.9 2-2-.9-2-2-2zM7.17 
14h9.66c.75 0 1.41-.41 
1.75-1.03l3.58-6.49-1.75-1.01L16.83 
13H8.1L4.34 4H1v2h2l3.6 
7.59-1.35 2.44C4.52 16.37 
5.48 18 7.17 18z" fill="red"/>
<line x1="7" y1="7" x2="17" y2="17" stroke="red" stroke-width="2"/>
<line x1="17" y1="7" x2="7" y2="17" stroke="red" stroke-width="2"/>
</svg>
